<svg xmlns="http://www.w3.org/2000/svg" viewBox="0 0 1921 66.69"><defs><style>.cls-1{fill:#4600ae;}</style></defs><title>shredded</title><g id="Layer_1" data-name="Layer 1"><path class="cls-1" d="M-1,302l74,8,29-4,43,4h26l34-4,27,4,108-8s-25.79,8.56-18,8c70-5,30-8,70-4s-23,6,40,4-8,4,63-4,71-4,71-4,2-7,56-1,54,4,54,4l56,6s54-3,32-6,61,6,61,6l35-6s-78-9-20-6,37,4,58,6,21,0,21,0,19,10,80,6,28-2,61-6,8-14,33-7,25,6,25,6h38s-97,8-29,8h68l120-8s-90,15-29,8l61-7h33s21,8,57,9-9,7,36,0,45-8,45-8h74s-83,10-19,11,64,0,64,0l56-10s-7,17,28,10,35-10,35-10l44,1s50-8,50-1,70-11,70-11V252H-1Z" transform="translate(1 -252)"/></g></svg>